<svg xmlns="http://www.w3.org/2000/svg" viewBox="0 0 520 160" role="img" aria-labelledby="title desc">
  <title id="title">Prayer Controller Pro logo</title>
  <desc id="desc">Prayer Controller Pro wordmark with a geometric green mark.</desc>
  <rect width="520" height="160" rx="24" fill="#0d1117"/>
  <g transform="translate(26 24) scale(.44)">
    <defs>
      <linearGradient id="pcp-accent" x1="36" y1="36" x2="220" y2="220" gradientUnits="userSpaceOnUse">
        <stop offset="0" stop-color="#58f6a6"/>
        <stop offset="1" stop-color="#18c47c"/>
      </linearGradient>
    </defs>
    <g fill="none" stroke="url(#pcp-accent)" stroke-linecap="round" stroke-linejoin="round">
      <path stroke-width="11" d="M128 20 168 88 236 128 168 168 128 236 88 168 20 128 88 88Z"/>
      <path stroke-width="8" opacity=".92" d="M128 20 88 88 20 128 88 168 128 236 168 168 236 128 168 88Z"/>
      <path stroke-width="7" opacity=".72" d="M128 52 152 104 204 128 152 152 128 204 104 152 52 128 104 104Z"/>
      <path stroke-width="6" opacity=".56" d="M88 88 168 88 168 168 88 168Z"/>
      <path stroke-width="6" opacity=".56" d="M128 52 204 128 128 204 52 128Z"/>
    </g>
    <g fill="#0d1117" stroke="#58f6a6" stroke-width="6">
      <circle cx="128" cy="20" r="9"/>
      <circle cx="236" cy="128" r="9"/>
      <circle cx="128" cy="236" r="9"/>
      <circle cx="20" cy="128" r="9"/>
      <circle cx="88" cy="88" r="7"/>
      <circle cx="168" cy="88" r="7"/>
      <circle cx="168" cy="168" r="7"/>
      <circle cx="88" cy="168" r="7"/>
    </g>
  </g>
  <g font-family="Segoe UI, Arial, sans-serif" font-weight="700">
    <text x="158" y="72" font-size="34" fill="#f0f6fc">Prayer</text>
    <text x="158" y="112" font-size="34" fill="#f0f6fc">Controller <tspan fill="#35e68f">Pro</tspan></text>
  </g>
</svg>
